# xmcd
#
# Track frame offsets:
#	150
#	23613
#	55056
#	71165
#	81799
#	99786
#	115582
#	136464
#	150461
#	162502
#	175326
#	194956
#	233753
#	263162
#	279428
#	293816
#	320409
#
# Disc length: 4665 seconds
#
# Revision: 1
# Processed by: cddbd v1.5.2PL0 Copyright (c) Steve Scherf et al.
# Submitted via: audiograbber 1.83.01
#
DISCID=ea123711
DTITLE=Bob Dylan - The Best of Bob Dylan Vol. 2
DYEAR=2000
DGENRE=
TTITLE0=Things Have Changed 
TTITLE1=A Hard Rain's A-Gonna Fall 
TTITLE2=It Ain't Me Babe 
TTITLE3=Subterannean Homesick Blues 
TTITLE4=Positively 4th Street 
TTITLE5=Highway 61 Revisited 
TTITLE6=Rainy Day Women #12 and #35 
TTITLE7=I Want You 
TTITLE8=I'll Be Your Baby Tonight 
TTITLE9=Quinn The Eskimo 
TTITLE10=Simple Twist Of Fate 
TTITLE11=Hurricane
TTITLE12=Changing Of The Guards 
TTITLE13=License To Kill 
TTITLE14=Silvio
TTITLE15=Dignity (Outtake)
TTITLE16=Not Dark Yet 
EXTD=
EXTT0=
EXTT1=
EXTT2=
EXTT3=
EXTT4=
EXTT5=
EXTT6=
EXTT7=
EXTT8=
EXTT9=
EXTT10=
EXTT11=
EXTT12=
EXTT13=
EXTT14=
EXTT15=
EXTT16=
PLAYORDER=
